<svg xmlns="http://www.w3.org/2000/svg" fill="none" viewBox="-0.5 -0.5 250 250" id="Texture-Drawing-Curly--Streamline-Textures.svg" height="250" width="250"><desc>Texture Drawing Curly Streamline Element: https://streamlinehq.com</desc><path fill="#2e3120" d="M103.33549502982108 203.64734791252485c-7.821471172962227 0 -10.167912524850895 -4.866143141153081 -12.870775347912524 -14.192504970178927 -0.1688051689860835 -0.6445288270377734 -0.20890258449304175 -1.3162842942345923 -0.11781709741550696 -1.9761590457256462 0.09059045725646123 -0.6598747514910537 0.31087872763419483 -1.295493041749503 0.6474990059642147 -1.8702226640159045 0.3539463220675944 -0.7222485089463221 0.9781789264413518 -1.275196819085487 1.7375546719681907 -1.5395427435387674 3.2671968190854868 -0.8167992047713717 6.618548707753479 -0.8762027833001989 9.86099403578529 -0.9356063618290258 4.455268389662027 -0.07920477137176939 8.672922465208748 -0.15345924453280319 12.811371769383697 -1.9801192842942346 1.3722226640159045 -0.6836361829025844 2.6954373757455268 -1.461328031809145 3.960238568588469 -2.3266401590457257 3.7820278330019876 -2.430596421471173 8.06403578528827 -5.182962226640159 11.925268389662028 -3.8958846918489067 2.5989065606361827 0.8663021868787276 4.034493041749503 2.1335785288270377 4.2721073558648115 3.7671769383697815 0.5494831013916501 3.7869781312127238 -5.722544731610338 8.167992047713717 -9.87089463220676 11.068866799204772 -0.7375944333996024 0.49502982107355864 -1.376182902584493 0.9603578528827037 -1.8712127236580516 1.3316302186878728 -1.6281530815109344 1.2984632206759443 -3.174131212723658 2.696922465208748 -4.628528827037773 4.187952286282306 -3.5493638170974156 3.4652087475149105 -7.578906560636183 7.42544731610338 -12.31634194831014 8.093737574552684 -1.1722306163021867 0.17276540755467196 -2.3548568588469183 0.26187077534791253 -3.5394632206759447 0.26731610337972167Zm-10.237216699801193 -18.13789264413519c-0.3564214711729622 0.18019085487077535 -0.6420536779324055 0.4747335984095427 -0.8118489065606361 0.836600397614314 -0.4737435387673956 0.8148190854870775 -0.6123518886679921 1.7826023856858846 -0.38612326043737577 2.697912524850895 3.0097813121272368 10.430278330019881 5.069105367793241 14.246958250497018 14.791491053677932 12.870775347912524 4.257256461232604 -0.6039363817097415 7.920477137176938 -4.202803180914513 11.48469184890656 -7.68286282306163 1.4999403578528825 -1.5380576540755468 3.0954214711729624 -2.9795844930417497 4.777037773359841 -4.316660039761432 0.49502982107355864 -0.38612326043737577 1.1633200795228629 -0.836600397614314 1.9108151093439363 -1.3613320079522864 3.3810536779324054 -2.3612922465208745 9.667932405566601 -6.757157057654076 9.252107355864812 -9.638230616302186 -0.15345924453280319 -1.0346123260437374 -1.2524254473161032 -1.8959642147117297 -3.272147117296223 -2.5692047713717696 -3.187992047713718 -1.064314115308151 -7.153180914512922 1.485089463220676 -10.653041749502982 3.7325248508946323 -1.330145129224652 0.911844930417495 -2.7246441351888664 1.7256739562624255 -4.173101391650099 2.4355467196819083 -4.415666003976143 1.9801192842942346 -8.974890656063618 2.044473161033797 -13.365805168986084 2.123677932405567 -3.1780914512922465 0.034652087475149106 -6.4502385685884684 0.1138568588469185 -9.554075546719682 0.8712524850894632Z" stroke-width="1"></path><path fill="#2e3120" d="M234.96392445328033 106.49279522862822c-2.135558648111332 -0.012375745526838967 -4.213198807157057 -0.6945268389662028 -5.940357852882704 -1.950417495029821 -6.435387673956262 -4.539423459244532 -9.128349900596422 -15.489483101391649 -9.648131212723657 -20.64769383697813 -0.71779324055666 -7.192783300198807 2.0494234592445326 -12.95493041749503 4.722584493041749 -18.519065606361828 1.4454870775347912 -3.0097813121272368 2.9355268389662026 -6.118568588469184 3.890934393638171 -9.45506958250497 0.801948310139165 -2.801868787276342 0.8811530815109344 -6.385884691848907 0.9900596421471173 -10.178011133200796 0.20296222664015903 -8.762027833001987 0.4356262425447316 -18.692326043737573 10.0293041749503 -21.890218687872764 2.128628230616302 -0.7128429423459244 2.970178926441352 -0.2920675944333996 3.806779324055666 0.3217693836978131 0.10395626242544731 0.0742544731610338 0.20791252485089462 0.15345924453280319 0.3217693836978131 0.227713717693837 0.04950298210735587 0.030246322067594433 0.09554075546719681 0.0650469184890656 0.13860834990059642 0.10395626242544731l0.9306560636182902 0.9504572564612326c0.03366202783300199 0.03103836978131213 0.06336381709741551 0.06593797216699802 0.08910536779324055 0.10395626242544731 1.22272365805169 1.81675944333996 0.6979920477137176 5.4156262425447315 0.08415506958250497 7.262087475149105 -2.584055666003976 7.747216699801193 -5.222564612326044 17.004472365805167 -5.222564612326044 26.905068787276342 0 4.712683896620278 2.143479125248509 8.361053677932405 4.415666003976143 12.227236580516898 3.658270377733598 6.232425447316103 7.806620278330019 13.296500994035785 2.7325646123260436 25.98906560636183 -1.7623061630218688 4.405765407554672 -4.717634194831014 7.242286282306163 -8.539264413518886 8.19769383697813 -0.9158051689860836 0.23167395626242546 -1.8568568588469183 0.34998608349900595 -2.801868787276342 0.35147117296222663Zm5.87600397614314 -81.53160954274354c-0.47918886679920475 0.028266202783300196 -0.9514473161033796 0.1284107355864811 -1.400934393638171 0.2970178926441352 -8.60361829025845 2.87117296222664 -8.811530815109345 11.841113320079524 -9.014493041749503 20.51898608349901 -0.08910536779324055 3.8911324055666006 -0.1732604373757455 7.564253677932405 -1.029662027833002 10.5542337972167 -0.9900596421471173 3.4652087475149105 -2.5098011928429425 6.623499005964215 -3.960238568588469 9.682783300198807 -2.70286282306163 5.633439363817097 -5.257216699801193 10.950059642147117 -4.579025844930418 17.73196819085487 0.5742345924453279 5.722544731610338 3.4652087475149105 15.657793240556659 9.019443339960239 19.578429423459244 1.0682743538767394 0.7771968190854871 2.2984234592445327 1.3048986083499006 3.597876739562624 1.5430079522862823 1.299948310139165 0.2381093439363817 2.6370238568588467 0.18118091451292245 3.9117256461232603 -0.16682504970178927 4.222604373757455 -1.05441351888668 6.435387673956262 -4.559224652087475 7.519502982107356 -7.311590457256461 4.806739562624255 -12.014373757455267 1.0247117296222663 -18.454711729622268 -2.633558648111332 -24.682186878727634 -2.2721868787276343 -3.8661829025844927 -4.618628230616302 -7.861073558648112 -4.618628230616302 -12.979681908548708 0 -10.113459244532804 2.678111332007952 -19.51427355864811 5.296819085487077 -27.375347117296222 0.5643339960238568 -1.688051689860835 0.910854870775348 -4.648330019880716 0.12870775347912525 -5.905705765407554l-0.8217495029821072 -0.836600397614314c-0.1138568588469185 -0.0742544731610338 -0.22276341948310138 -0.15345924453280319 -0.33166998011928434 -0.23266401590457256 -0.2985029821073559 -0.2662765407554672 -0.684131212723658 -0.4141914512922465 -1.0841153081510935 -0.41582504970178924Z" stroke-width="1"></path><path fill="#2e3120" d="M101.07815904572564 137.47176143141152c-0.30988866799204773 0.0009900596421471173 -0.6192823061630218 -0.020791252485089465 -0.9257057654075547 -0.06435387673956262 -2.3167395626242544 -0.33166998011928434 -3.960238568588469 -1.8910139165009938 -4.871093439363817 -4.638429423459244 -0.910854870775348 -2.74741550695825 0.7029423459244533 -5.380974155069582 2.2672365805168986 -7.920477137176938 0.9900596421471173 -1.593996023856859 1.9058648111332008 -3.1038369781312123 2.1385288270377734 -4.509721669980119 2.059324055666004 -12.375745526838966 -5.128508946322067 -20.44473161033797 -21.370437375745528 -24.053499005964216l-0.6732405566600398 -0.1485089463220676c-2.405844930417495 -0.5296819085487078 -4.89089463220676 -1.0742147117296221 -7.034373757455269 -2.3117892644135187 -0.15395427435387674 -0.09009542743538768 -0.2955328031809145 -0.1999920477137177 -0.42077534791252486 -0.3267196819085487 -0.2831570576540755 -0.2732564612326044 -0.47918886679920475 -0.624727634194831 -0.5618588469184891 -1.0098608349900597 -0.0826699801192843 -0.3846381709741551 -0.04900795228628231 -0.7856123260437375 0.09752087475149106 -1.150944333996024 0.1460337972166998 -0.36533200795228626 0.3975089463220676 -0.6791809145129225 0.7227435387673956 -0.9009542743538768 0.32523459244532804 -0.22177335984095428 0.7093777335984096 -0.34157057654075546 1.1029264413518887 -0.34404572564612323 3.643419483101392 -0.09405566600397615 6.776958250497017 -0.3613717693836978 9.544174950298212 -0.5940357852882704 9.153101391650099 -0.7672962226640159 15.761749502982108 -1.3217296222664014 29.741391650099402 4.89089463220676 9.257057654075545 4.113697813121273 12.375745526838966 11.43023856858847 9.79168986083499 23.028787276341948 -0.7935328031809145 3.612727634194831 -2.2538707753479126 7.046254473161033 -4.30675944333996 10.123359840954274 -2.0048707753479125 2.8860238568588468 -9.46497017892644 9.930298210735586 -15.24196819085487 9.930298210735586Zm-11.786660039761431 -46.96347912524851c-2.5989065606361827 0 -5.182962226640159 0.2178131212723658 -8.068986083499006 0.46037773359840956 -2.787017892644135 0.23761431411530815 -5.940357852882704 0.49502982107355864 -9.633280318091451 0.598986083499006 -0.10395626242544731 -0.006435387673956262 -0.2069224652087475 0.019801192842942347 -0.29503777335984094 0.07524453280318091 -0.08762027833001987 0.05544333996023857 -0.15593439363817096 0.13712326043737574 -0.19504174950298211 0.23365407554671966 -0.03861232604373757 0.09603578528827038 -0.04603777335984095 0.20246719681908548 -0.02128628230616302 0.30345328031809143 0.024751491053677934 0.10098608349900595 0.08068986083499007 0.1915765407554672 0.15989463220675945 0.2589005964214712 0.034652087475149106 0.03366202783300199 0.07276938369781312 0.06336381709741551 0.1138568588469185 0.08910536779324055 1.9454671968190855 1.1237176938369782 4.316660039761432 1.6434990059642145 6.608648111332007 2.1484294234592443l0.6781908548707754 0.1485089463220676c17.152783300198806 3.8117296222664017 24.75149105367793 12.474751491053677 22.513956262425445 25.741550695825048 -0.2821669980119284 1.6930019880715705 -1.3266799204771373 3.3909542743538763 -2.3365407554671966 5.039403578528827 -1.4553876739562623 2.3612922465208745 -2.8266202783300196 4.593876739562623 -2.128628230616302 6.682902584493042 0.7326441351888667 2.1979324055666005 1.9355666003976144 3.386003976143141 3.6780715705765408 3.638469184890656 4.920596421471172 0.7078926441351888 12.657912524850895 -6.252226640159046 14.732087475149106 -9.247157057654075 1.9350715705765407 -2.9256262425447317 3.317194831013916 -6.180447316103379 4.079045725646123 -9.603578528827036 2.430596421471173 -10.93520874751491 -0.3267196819085487 -17.524055666003974 -8.945188866799205 -21.350636182902587 -9.375864811133201 -4.158250497017892 -15.202365805168986 -5.217614314115307 -20.93976143141153 -5.217614314115307Z" stroke-width="1"></path><path fill="#2e3120" d="M79.23744333996024 5.768879522862823c-1.0593638170974156 1.7870576540755467 -2.158330019880716 3.638469184890656 -2.158330019880716 5.940357852882704 0 1.806858846918489 0.7573956262425448 3.4256063618290256 1.485089463220676 4.994850894632207 0.6088866799204771 1.1511423459244534 1.0568886679920475 2.380350894632207 1.3316302186878728 3.653320079522863 0.5692842942345924 3.4652087475149105 -1.485089463220676 6.435387673956262 -3.277097415506958 8.351153081510935 -5.475029821073559 5.767097415506958 -16.78646123260437 10.09365805168986 -24.206958250497017 9.262007952286282 -3.7374751491053675 -0.42077534791252486 -6.197773359840954 -1.673200795228628 -7.519502982107356 -3.8216302186878726 -2.584055666003976 -4.192902584493042 -0.346520874751491 -11.162922465208748 1.950417495029821 -17.365646123260436 0.346520874751491 -0.9306560636182902 0.6831411530815109 -1.950417495029821 1.039562624254473 -3.029582504970179 1.242524850894632 -3.747375745526839 2.6484095427435386 -7.999681908548708 4.950298210735586 -10.356013956262425 0.24751491053677932 -0.24751491053677932 0.5445328031809146 -0.5346322067594433 0.8811530815109344 -0.8564015904572564 0.7078926441351888 -0.6880914512922465 1.5642942345924453 -1.5147912524850895 2.410795228628231 -2.435544739562624h-2.0246719681908547c-0.49502982107355864 0.4950278409542743 -0.9900596421471173 0.9603558727634195 -1.3910337972166997 1.3662803260437375 -0.34157057654075546 0.33166998011928434 -0.6484890656063619 0.6286878727634195 -0.9009542743538768 0.8811530815109344 -2.574155069582505 2.6038469582504966 -4.039443339960239 7.029413558648112 -5.331471172962226 10.935198846918489 -0.35147117296222663 1.0692644135188867 -0.6831411530815109 2.074174950298211 -1.0197614314115309 2.970178926441352 -2.4206958250497017 6.53934393638171 -4.772087475149106 13.905387673956263 -1.8019085487077535 18.667574552683895 1.5593439363817096 2.5296023856858847 4.455268389662027 4.049343936381709 8.623419483101392 4.519622266401591 0.6757157057654075 0.07465049701789264 1.3548966202783301 0.11098568588469185 2.034572564612326 0.1089065606361829 7.712564612326044 0 18.142842942345922 -4.277057654075547 23.414910536779324 -9.826341948310139 2.9256262425447317 -3.079085487077535 4.192902584493042 -6.4007355864811135 3.663220675944334 -9.608528827037773 -0.2955328031809145 -1.4083103379721669 -0.7836322067594433 -2.769196819085487 -1.450437375745527 -4.044393638170974 -0.693041749502982 -1.485089463220676 -1.351431411530815 -2.8860238568588468 -1.351431411530815 -4.366163021868787 0 -1.8959642147117297 0.9455069582504969 -3.4652087475149105 1.950417495029821 -5.182962226640159 1.0841153081510935 -1.8316004373757455 2.2820874751491056 -3.866173001988072 2.192982107355865 -6.435375793240556h-1.485089463220676c0.0742544731610338 2.14842744333996 -0.9603578528827037 3.8711312206759443 -2.0098210735586477 5.677980166998013Z" stroke-width="1"></path><path fill="#2e3120" d="M25.398 5.853034592445328c1.7623061630218688 1.2870775347912524 4.079045725646123 1.579145129224652 6.880914512922465 0.8712524850894632 2.36624254473161 -0.598986083499006 5.009701789264413 -3.296888707753479 8.00958250497018 -6.618537322067595h-2.014771371769384c-2.400894632206759 2.6088056719681907 -4.618628230616302 4.737433902584494 -6.356182902584493 5.178000542743539 -2.390994035785288 0.6039363817097415 -4.232504970178927 0.39602385685884695 -5.643339960238569 -0.6286779721669981 -1.3068787276341949 -0.9603578528827037 -2.158330019880716 -2.5692047713717696 -2.7375149105367793 -4.549322570576541h-1.5593439363817096c0.6534393638170974 2.425644638170974 1.6930019880715705 4.4849686938369775 3.4206560636182903 5.747284836978132Z" stroke-width="1"></path><path fill="#2e3120" d="M94.14774155069583 11.031046520874751c-0.455427435387674 3.0196819085487077 -1.1682703777335983 6.930417495029821 -2.6632604373757456 10.395626242544731 -2.590491053677932 5.867687475149105 -5.95520874751491 11.36187495029821 -10.00455268389662 16.335984095427435 -1.9801192842942346 2.430596421471173 -4.717634194831014 4.554274353876739 -7.3808946322067595 6.613598409542743 -0.7276938369781312 0.5593836978131213 -1.4405367793240558 1.1088667992047714 -2.118727634194831 1.6583499005964215 -2.405844930417495 1.9500214711729622 -5.168111332007952 3.4128345924453276 -8.133339960238569 4.30695745526839 -16.232027833001986 4.905745526838966 -23.692127236580518 -8.227593638170974 -30.904711729622267 -20.930058846918488 -5.519582504970179 -9.712485089463222 -10.732246520874751 -18.91013916500994 -19.573479125248507 -19.994254473161035 -4.455268389662027 -0.5544333996023857 -8.875864890656064 -0.034652087475149106 -13.276682475149105 0.9405566600397613v1.5246918489065606c4.371115795228628 -0.9900596421471173 8.76201050695825 -1.5345924453280317 13.093521441351887 -0.9900596421471173 8.103638170974156 0.9900596421471173 13.138091451292246 9.87089463220676 18.464612326043735 19.251709741550695 6.113618290258449 10.7668986083499 12.925228628230617 22.771569781312127 25.627693836978132 22.771569781312127 2.3781232604373757 -0.023761431411530816 4.739415506958251 -0.39602385685884695 7.009622266401591 -1.1039165009940357 3.1483896620278333 -0.9455069582504969 6.081441351888668 -2.4974749502982108 8.633320079522864 -4.5693232604373755 0.6732405566600398 -0.539582504970179 1.3811332007952286 -1.0841153081510935 2.098926441351889 -1.6434990059642145 2.7325646123260436 -2.10882703777336 5.5542345924453285 -4.286958250497018 7.6284095427435386 -6.851212723658051 4.135974155069583 -5.089946123260437 7.572471172962227 -10.710564214711729 10.21741550695825 -16.71220675944334 1.5642942345924453 -3.643419483101392 2.2969383697813117 -7.677912524850894 2.762266401590457 -10.786699801192842 0.6281928429423459 -3.684704970178926 0.6682902584493042 -7.445807892644136 0.11880715705765407 -11.14310988667992h-1.485089463220676c0.5247316103379722 3.0345313180914513 0.5445328031809146 6.6135870238568595 -0.1138568588469185 10.925296765407555Z" stroke-width="1"></path><path fill="#2e3120" d="M247.60698608349898 156.53535984095427c-1.8479463220675945 -0.1410834990059642 -3.703318091451292 -0.1638548707753479 -5.5542345924453285 -0.06930417495029821 -9.979801192842942 0.5890854870775347 -18.939840954274352 5.4453280318091455 -27.60781312127237 10.118409542743539 -6.257176938369781 3.3810536779324054 -12.732166998011929 6.880914512922465 -19.459622266401592 8.672922465208748 -16.57854870775348 4.425566600397614 -29.86514910536779 -0.7672962226640159 -38.414314115308144 -15.019204771371768 -2.717713717693837 -4.524572564612326 -4.603777335984096 -8.093737574552684 -4.1632007952286285 -12.915328031809144 0.6286878727634195 -6.930417495029821 3.1483896620278333 -12.870775347912524 5.816600397614314 -19.132902584493042 1.3266799204771373 -3.1186878727634193 2.697912524850895 -6.346282306163022 3.816679920477137 -9.707534791252485 1.5395427435387674 -4.6235785288270375 1.77220675944334 -9.054095427435387 2.0197216699801195 -13.746978131212723 0.07920477137176939 -1.485089463220676 0.15840954274353877 -3.0691848906560635 0.2920675944333996 -4.6235785288270375 0.227713717693837 -2.7771172962226642 1.1088667992047714 -5.588886679920477 1.9801192842942346 -8.306600397614314 0.7054174950298211 -2.099421471172962 1.2806421471172964 -4.240425447316103 1.7227037773359841 -6.410636182902584 1.3613320079522864 -7.474950298210735 -2.381093439363817 -20.741749502982106 -7.55910536779324 -26.77616302186879 -6.5343936381709735 -7.6284095427435386 -15.999363817097416 -10.920555864811133 -28.1275944333996 -9.786937574552683 -12.32624254473161 1.153617495029821 -23.52381709741551 6.519740755467197 -29.102803180914513 9.618627435387673 -8.291749502982107 4.608727634194831 -22.96938369781312 11.38568588469185 -28.063240556660038 5.019602385685885 -0.3113737574552684 -0.3796878727634195 -0.5380974155069582 -0.8207594433399602 -0.6663101391650099 -1.2940079522862822 -0.1282127236580517 -0.4737435387673956 -0.15395427435387674 -0.9692683896620278 -0.07623459244532803 -1.4534075546719682 0.43067594433399603 -3.4157057654075547 4.697833001988071 -7.42544731610338 7.148230616302187 -9.276858846918488 1.9108151093439363 -1.4306361829025844 3.960238568588469 -2.856520079522863 5.940357852882704 -4.232702982107356 9.682783300198807 -6.722504970178926 19.692286282306164 -13.677673956262424 21.64765407554672 -26.390039761431414 1.22272365805169 -7.960079522862822 0.371272365805169 -14.26675944333996 -2.098926441351889 -20.69718493836978h-1.60389662027833c2.5444532803180913 6.400723705765407 3.4652087475149105 12.613347960238569 2.2325844930417493 20.469471220675942 -1.8761630218687873 12.063876739562625 -11.598548707753478 18.83093439363817 -21.043717693836978 25.380178926441353 -1.9801192842942346 1.3811332007952286 -4.054294234592445 2.8167196819085487 -5.984910536779324 4.262404771371769 -0.7276938369781312 0.5494831013916501 -7.118528827037774 5.4453280318091455 -7.732365805168985 10.276819085487078 -0.10197614314115308 0.6816560636182902 -0.06039363817097415 1.3771729622266402 0.12177733598409543 2.0424930417495033 0.18266600397614313 0.6648250497017892 0.5019602385685885 1.284107355864811 0.93758648111332 1.8187395626242544 2.7226640159045727 3.4058051689860833 7.826421471172963 4.034493041749503 15.177614314115308 1.8662624254473161 4.311709741550696 -1.2722266401590456 9.276858846918488 -3.4652087475149105 14.766739562624254 -6.514592445328032s16.459741550695824 -8.31155069582505 28.518667992047714 -9.435268389662028c11.61834990059642 -1.0892636182902584 20.657594433399602 2.034572564612326 26.865268389662027 9.271908548707753 4.851292246520875 5.658190854870775 8.494711729622267 18.553717693836976 7.222485089463221 25.543538767395628 -0.43265606361829023 2.1093220675944333 -0.9930298210735585 4.190427435387674 -1.6781510934393638 6.232425447316103 -0.8762027833001989 2.7969184890656065 -1.782107355864811 5.6878926441351885 -2.0246719681908547 8.628369781312127 -0.13365805168986084 1.579145129224652 -0.2178131212723658 3.1533399602385686 -0.2970178926441352 4.673081510934393 -0.23761431411530815 4.588926441351888 -0.4653280318091451 8.910536779324055 -1.9454671968190855 13.365805168986084 -1.0989662027833003 3.301848906560636 -2.475149105367793 6.499741550695825 -3.7721272365805167 9.588727634194832 -2.5939562624254475 6.108667992047714 -5.281968190854871 12.425248508946323 -5.940357852882704 19.58337972166998 -0.49502982107355864 5.257216699801193 1.5989463220675944 9.202604373757454 4.366163021868787 13.811332007952286 6.866063618290258 11.44013916500994 16.637952286282307 17.291391650099403 28.647375745526837 17.291391650099403 3.861727634194831 -0.03217693836978131 7.703159045725646 -0.569779324055666 11.425288270377733 -1.5989463220675944 6.900715705765407 -1.8365606361829026 13.44996023856859 -5.380974155069582 19.801192842942346 -8.801630218687873 8.524413518886679 -4.608727634194831 17.32604373757455 -9.375864811133201 26.989025844930417 -9.940198807157056 1.814779324055666 -0.09356063618290258 3.63351888667992 -0.07078926441351888 5.4453280318091455 0.06930417495029821l0.014850894632206759 -1.4751888667992048Z" stroke-width="1"></path><path fill="#2e3120" d="M247.60698608349898 131.9422783300199c-7.795234592445328 2.6078170974155066 -15.348399602385685 5.890854870775348 -22.573359840954275 9.811491053677932 -2.5637594433399604 1.4420218687872761 -5.028017892644135 3.054333996023857 -7.375944333996024 4.826540755467197 -2.5395029821073556 1.8266600397614314 -5.163161033797216 3.7176739562624252 -7.965029821073559 5.1186083499005965 -8.880834990059643 4.455268389662027 -24.98910536779324 4.455268389662027 -32.44425447316104 -2.168230616302187 -10.138210735586481 -9.014493041749503 -7.182882703777336 -20.09821073558648 -4.3265606361829025 -30.82055666003976 1.0890656063618291 -4.079045725646123 2.9157256461232604 -9.153101391650099 4.856242544731611 -14.529125248508947 6.6631013916501 -18.49431411530815 14.959801192842942 -41.51320079522863 5.851252485089463 -55.17622186878728 -10.143161033797215 -15.212266401590457 -32.50365805168986 -14.385566600397613 -50.047514910536776 -8.539264413518886 -1.3959840954274352 0.4653280318091451 -3.1285884691848906 1.2474751491053677 -4.950298210735586 2.079125248508946 -5.668091451292246 2.5593041749502983 -13.41530815109344 6.074015904572565 -17.692365805168986 2.8662226640159045 -1.2821272365805167 -0.9603578528827037 -1.9801192842942346 -1.9801192842942346 -2.1385288270377734 -3.079085487077535 -0.30691848906560637 -2.188031809145129 1.519741550695825 -4.603777335984096 3.2820477137176938 -6.930417495029821 0.693041749502982 -0.910854870775348 1.3464811133200796 -1.7771570576540754 1.8860636182902584 -2.643459244532803 0.7227435387673956 -1.1534194831013918 1.485089463220676 -2.3167395626242544 2.2771371769383695 -3.5493638170974156 5.074055666003976 -7.836322067594433 10.831252485089463 -16.71220675944334 9.776838966202783 -26.23657061630219 -0.11088667992047714 -0.9678278528827038 -0.29454274353876736 -1.9259382703777337 -0.5494831013916501 -2.866221178926441h-1.5395427435387674c0.28860238568588464 0.9943946182902585 0.49403976143141154 2.0110571630218685 0.6138369781312127 3.039481616302187 0.9900596421471173 8.979831053677932 -4.608727634194831 17.618101431411528 -9.549125248508945 25.24651097415507 -0.801948310139165 1.2375745526838966 -1.5593439363817096 2.405844930417495 -2.287037773359841 3.569165009940358 -0.49502982107355864 0.8118489065606361 -1.1435188866799204 1.6484493041749504 -1.8118091451292246 2.5395029821073556 -1.950417495029821 2.574155069582505 -3.960238568588469 5.237415506958251 -3.569165009940358 8.03928429423459 0.2128628230616302 1.485089463220676 1.1286679920477136 2.8662226640159045 2.717713717693837 4.059244532803181 4.950298210735586 3.7327228628230618 12.870775347912524 0.16335984095427436 19.18735586481113 -2.70286282306163 1.7969582504970179 -0.8118489065606361 3.4899602385685884 -1.579145129224652 4.81168986083499 -2.0197216699801195 17.024075546719683 -5.673041749502983 38.66677932405567 -6.5640954274353875 48.34461232604374 7.9553272365805165 8.692723658051689 13.039085487077534 0.539582504970179 35.6668986083499 -6.014612326043737 53.84439363817097 -1.9454671968190855 5.40572564612326 -3.7869781312127238 10.514433399602385 -4.89089463220676 14.652882703777337 -2.970178926441352 11.153021868787278 -6.049264413518887 22.69216699801193 4.777037773359841 32.31059642147117 3.7622266401590454 3.346401590457256 9.712485089463222 5.341371769383698 16.74190854870775 5.61858846918489 0.5445328031809146 0 1.0890656063618291 0.034652087475149106 1.6335984095427434 0.034652087475149106 5.791848906560635 0 11.56389662027833 -1.1930218687872765 15.717196819085487 -3.2671968190854868 2.9107753479125247 -1.4553876739562623 5.583936381709741 -3.3810536779324054 8.167992047713717 -5.242365805168986 2.295948310139165 -1.7311192842942345 4.703773359840954 -3.308779324055666 7.207634194831014 -4.722584493041749 7.009127236580517 -3.7968787276341947 14.32665805168986 -6.993286282306164 21.875367793240557 -9.554075546719682v-1.5642942345924453Z" stroke-width="1"></path><path fill="#2e3120" d="M247.60698608349898 0.10574975546719682h-0.11880715705765407c0 1.9801177992047714 -1.1187673956262425 3.91073410139165 -3.291948310139165 5.811638713717693 -9.955049701789264 8.692723658051689 -23.414910536779324 7.227435387673956 -36.44409542743539 5.806699801192843 -6.361133200795228 -0.693041749502982 -12.935129224652087 -1.4108349900596422 -18.870536779324055 -0.8712524850894632 -5.212664015904572 0.49502982107355864 -9.672882703777335 2.8909741550695824 -13.989542743538768 5.222564612326044 -4.316660039761432 2.331590457256461 -8.291749502982107 4.489920477137177 -13.039085487077534 5.01465208747515 -6.202723658051689 0.693041749502982 -12.870775347912524 0.16335984095427436 -17.82107355864811 -1.4058846918489065 -6.757157057654076 -2.143479125248509 -10.534234592445328 -6.044314115308151 -11.22727634194831 -11.598548707753478 -0.3366202783300199 -2.678111332007952 0.1782107355864811 -5.2770079920477135 0.8217495029821072 -7.97986933001988h-1.5246918489065606c-0.6187872763419483 2.6484080576540756 -1.1237176938369782 5.366111874751491 -0.7722465208747515 8.167980662027833 1.4306361829025844 11.539145129224652 14.56872763419483 14.60337972166998 25.008906560636184 14.60337972166998 1.8969542743538765 0 3.7924234592445325 -0.10247117296222663 5.677992047713718 -0.30691848906560637 5.0344532803180915 -0.5593836978131213 9.380815109343937 -2.9107753479125247 13.58361829025845 -5.187912524850895 4.376063618290258 -2.36624254473161 8.509562624254473 -4.603777335984096 13.41530815109344 -5.049304174950298 5.7868986083499 -0.5247316103379722 11.99952286282306 0.1485089463220676 18.57351888667992 0.8663021868787276 13.365805168986084 1.4553876739562623 27.157335984095425 2.970178926441352 37.587614314115314 -6.168071570576541 0.9296660039761431 -0.791800198807157 1.7469602385685885 -1.7060707753479125 2.430596421471173 -2.7177038170974157l0 -4.207751994035785Z" stroke-width="1"></path><path fill="#2e3120" d="M184.1738648111332 0.10574975546719682c-0.8712524850894632 0.28711729622266396 -1.7672564612326043 0.584133703777336 -2.6880119284294235 0.9009527892644136 -7.677912524850894 2.5939562624254475 -16.380536779324057 5.5393737972167 -23.266401590457257 1.4157852882703776 -1.0237216699801193 -0.5809570974155069 -1.9142803180914512 -1.3702029423459245 -2.6137574552683898 -2.3167380775347914h-1.77220675944334c0.8509562624254473 1.5160322922465208 2.112292246520875 2.761596626242545 3.638469184890656 3.5939150159045727 2.648904572564612 1.5488394035785287 5.6745268389662025 2.3351942743538765 8.742226640159046 2.2721769781312124 5.2275149105367795 0 10.697594433399601 -1.851401630218688 15.7468986083499 -3.559254512922465 1.5890457256461232 -0.539582504970179 3.0939363817097414 -1.0494632206759444 4.539423459244532 -1.485089463220676 1.2341093439363817 -0.35820852882703774 2.4909900596421473 -0.6327481073558648 3.7622266401590454 -0.8217480178926441h-6.088866799204772Z" stroke-width="1"></path><path fill="#2e3120" d="M247.60698608349898 35.74788548707753c-0.059403578528827036 0.19801192842942347 -0.12870775347912525 0.4009741550695825 -0.1881113320079523 0.6039363817097415 -1.8712127236580516 6.554194831013916 -1.5890457256461232 13.861033001988071 0.1881113320079523 21.103319284294233V35.74788548707753Z" stroke-width="1"></path><path fill="#2e3120" d="m247.60698608349898 124.95245725646123 -0.7623459244532803 0.20296222664015903c-3.4652087475149105 0.9504572564612326 -6.58389662027833 2.767216699801193 -9.57882703777336 4.519622266401591 -1.485089463220676 0.8564015904572564 -2.970178926441352 1.7474552683896618 -4.5146719681908545 2.5098011928429425 -8.851133200795228 4.425566600397614 -29.548330019880716 9.74713717693837 -37.29554671968191 1.9801192842942346 -17.69731610337972 -17.67751491053678 -6.697753479125248 -45.16652087475149 1.3316302186878728 -65.24988071570577 0.5791848906560636 -1.485089463220676 1.316779324055666 -2.9058250497017895 2.093976143141153 -4.455268389662027 1.5345924453280317 -3.0246322067594433 3.1186878727634193 -6.1532206759443335 3.5345129224652085 -9.469920477137176 0.7524453280318092 -6.019760636182902 -4.1632007952286285 -9.405764612326044 -8.499662027833002 -12.420496222664015 -5.01465208747515 -3.4652087475149105 -9.346163021868787 -6.435387673956262 -6.227475149105368 -12.697514910536778 0.8266998011928429 -1.6583499005964215 2.1335785288270377 -3.217693836978131 3.400854870775348 -4.73248508946322 0.39602385685884695 -0.49502982107355864 0.7920477137176939 -0.9455069582504969 1.1682703777335983 -1.4157852882703776 1.8514115308151093 -2.3167395626242544 5.267117296222664 -1.7969582504970179 8.2768986083499 -1.341530815109344 0.5247316103379722 0.07920477137176939 1.029662027833002 0.15840954274353877 1.5147912524850895 0.2178131212723658 6.5888469184890655 0.8266998011928429 22.023876739562624 3.7671769383697815 23.08324055666004 13.30145129224652 0.7821471172962227 7.014572564612326 -2.514751491053678 12.1579324055666 -5.99976143141153 17.59850815109344 -1.4246958250497017 2.1464493041749506 -2.736524850894632 4.36517296222664 -3.930536779324056 6.648250497017893 -1.1088667992047714 2.2424850894632207 -2.192982107355865 4.311709741550696 -3.2374950298210736 6.2918290258449305 -6.96506958250497 13.172743538767396 -11.56389662027833 21.875367793240557 -1.8514115308151093 38.86974155069582 2.3117892644135187 4.049343936381709 7.286838966202784 11.167872763419481 14.618230616302187 13.365805168986084 6.039363817097415 1.8118091451292246 14.519224652087473 0.7524453280318092 22.88027833001988 -2.475149105367793v-1.6335984095427434c-8.232345924453279 3.272147117296223 -16.67755467196819 4.425566600397614 -22.45455268389662 2.692962226640159 -6.836361829025845 -2.0494234592445326 -11.55399602385686 -8.82638170974155 -13.756878727634195 -12.682664015904573 -9.306560636182903 -16.28648111332008 -5.098807157057655 -24.256461232604373 1.8761630218687873 -37.43910536779324 1.05441351888668 -1.9801192842942346 2.143479125248509 -4.059244532803181 3.2622465208747515 -6.2918290258449305 1.16431013916501 -2.239514910536779 2.4464373757455267 -4.416161033797216 3.841431411530815 -6.519542743538767 3.4652087475149105 -5.4455260437375745 7.059125248508946 -11.029462425447315 6.222524850894632 -18.56381630218688 -1.173220675944334 -10.583737574552684 -17.434950298210733 -13.74202783300199 -24.370318091451292 -14.608330019880716 -0.49502982107355864 -0.059403578528827036 -0.9900596421471173 -0.13860834990059642 -1.485089463220676 -0.2128628230616302 -3.2374950298210736 -0.49502982107355864 -7.2719880715705765 -1.1088667992047714 -9.662982107355864 1.8811133200795227 -0.36632206759443336 0.46037773359840956 -0.7524453280318092 0.9207554671968191 -1.1435188866799204 1.3910337972166997 -1.386083499005964 1.529048111332008 -2.590491053677932 3.213486083499006 -3.5889662027833 5.019602385685885 -3.697872763419483 7.390795228628231 1.593996023856859 11.049065606361829 6.70765407554672 14.583578528827038 4.376063618290258 3.029582504970179 8.514512922465208 5.886102584493042 7.870974155069582 11.01461153081511 -0.38117296222664016 3.059284294234592 -1.9058648111332008 6.0690656063618285 -3.386003976143141 8.979840954274353 -0.7573956262425448 1.485089463220676 -1.5395427435387674 3.044433399602386 -2.1484294234592443 4.559224652087475 -8.182842942345925 20.45958250497018 -19.39031809145129 48.473320079522864 -0.9900596421471173 66.86367793240557 3.187992047713718 3.1929423459244535 8.227395626242545 4.390914512922465 13.7717296222664 4.390914512922465 9.019443339960239 0 19.37051689860835 -3.1780914512922465 25.24652087475149 -6.108667992047714 1.5741948310139167 -0.7870974155069583 3.113737574552684 -1.688051689860835 4.5988270377733595 -2.5593041749502983 2.9107753479125247 -1.7078528827037773 5.940357852882704 -3.4652087475149105 9.222405566600397 -4.366163021868787l0.371272365805169 -0.10395626242544731 -0.009900596421471173 -1.5345924453280317Z" stroke-width="1"></path><path fill="#2e3120" d="M247.60698608349898 231.33931610337973c-1.9108151093439363 0.42077534791252486 -3.816679920477137 0.8266998011928429 -5.692842942345925 1.22272365805169 -8.935288270377734 1.8959642147117297 -17.370596421471173 3.687972166998012 -23.018886679920477 6.514592445328032 -4.236960238568588 2.115262425447316 -8.035324055666004 5.014157057654075 -11.192624254473161 8.544214711729623h2.0494234592445326c2.83355069582505 -2.947407554671968 6.150250497017892 -5.388399602385686 9.806540755467196 -7.217534791252485 5.479980119284294 -2.7375149105367793 13.826182902584494 -4.509721669980119 22.662465208747516 -6.385884691848907 1.7771570576540754 -0.3762226640159046 3.579065606361829 -0.7623459244532803 5.385924453280318 -1.1583697813121272v-1.519741550695825Z" stroke-width="1"></path><path fill="#2e3120" d="M152.64541550695824 242.324027833002c-1.7078528827037773 -8.53431411530815 -10.257017892644134 -10.984711729622267 -17.82107355864811 -13.143041749502983 -5.663141153081511 -1.6236978131212723 -11.01441351888668 -3.1533399602385686 -12.410397614314116 -6.960119284294235 -1.1583697813121272 -3.143439363817097 0.3564214711729622 -7.7917693836978135 4.633479125248509 -14.207355864811133 1.9558628230616302 -3.015226640159046 4.6933777335984095 -5.442852882703777 7.920477137176938 -7.0244731610337965 4.237455268389662 -2.118727634194831 7.989781312127237 -5.257216699801193 11.464890656063618 -9.598628230616303 1.0890656063618291 -1.3563817097415507 1.856361829025845 -3.079085487077535 2.5989065606361827 -4.742385685884692 1.7672564612326043 -3.960238568588469 3.4652087475149105 -7.742266401590458 9.301610337972166 -7.742266401590458 0.8771928429423459 0.004950298210735587 1.752900596421471 0.07821471172962227 2.6187077534791254 0.2178131212723658 4.455268389662027 0.6831411530815109 6.772007952286282 2.801868787276342 9.232306163021867 5.044353876739562 3.7374751491053675 3.410755467196819 7.603658051689861 6.930417495029821 18.845785288270378 5.0641550695825055 11.464890656063618 -1.9108151093439363 23.761431411530815 -7.395745526838966 34.6520874751491 -12.232186878727635l1.9207157057654074 -0.8564015904572564c2.289512922465209 -1.0737196819085486 4.5146719681908545 -2.2806023856858846 6.6631013916501 -3.613717693836978 3.559264413518887 -2.113777335984095 7.242286282306163 -4.30675944333996 11.38568588469185 -5.128508946322067 1.3316302186878728 -0.26731610337972167 2.6632604373757456 -0.4653280318091451 3.960238568588469 -0.598986083499006v-1.485089463220676c-1.4157852882703776 0.14355864811133198 -2.8414711729622266 0.35147117296222663 -4.2721073558648115 0.6385884691848907 -4.376063618290258 0.8712524850894632 -8.167992047713717 3.1285884691848906 -11.836163021868787 5.306719681908549 -2.098926441351889 1.3044035785288268 -4.272602385685885 2.484554671968191 -6.5096421471172965 3.5345129224652085l-1.925666003976143 0.8564015904572564c-10.776799204771372 4.801789264413518 -22.999085487077537 10.247117296222664 -34.28081510934393 12.12328031809145 -10.51938369781312 1.7573558648111332 -13.959840954274354 -1.376182902584493 -17.598310139165008 -4.697833001988071 -2.514751491053678 -2.2919880715705765 -5.11365805168986 -4.658230616302187 -10.00455268389662 -5.4156262425447315 -9.138250497017893 -1.4108349900596422 -11.459940357852881 3.7968787276341947 -13.50441351888668 8.390755467196819 -0.6158170974155069 1.5662743538767396 -1.422220675944334 3.050868787276342 -2.400894632206759 4.420616302186879 -3.341451292246521 4.168151093439364 -6.930417495029821 7.1779324055666 -10.96986083499006 9.197654075546719 -3.447882703777336 1.7033976143141152 -6.375984095427436 4.2998290258449305 -8.47986083499006 7.519502982107356 -4.6235785288270375 6.930417495029821 -6.148270377733598 11.880715705765407 -4.796838966202783 15.54393638170974 1.6583499005964215 4.509721669980119 7.361093439363817 6.143320079522863 13.395506958250497 7.870974155069582 7.484850894632206 2.143479125248509 15.227117296222664 4.361212723658052 16.75675944333996 12.009423459244534 0.328699801192843 1.6519145129224653 0.5489880715705765 3.323630218687873 0.658389662027833 5.0047514910536774h1.485089463220676c-0.11138170974155069 -1.7786421471172962 -0.33959045725646125 -3.5483737574552685 -0.6831411530815109 -5.296819085487077Z" stroke-width="1"></path><path fill="#2e3120" d="M247.60698608349898 218.01311332007953c-1.5494433399602385 0.658389662027833 -3.079085487077535 1.3217296222664014 -4.583976143141153 1.9801192842942346 -9.61347912524851 4.173101391650099 -18.692326043737573 8.113538767395626 -29.389920477137174 10.257017892644134 -5.7175944333996025 1.1435188866799204 -12.375745526838966 2.2771371769383695 -13.484612326043736 2.168230616302187 -3.7622266401590454 -2.5989065606361827 -8.910536779324055 -11.55399602385686 -9.900596421471173 -15.56868787276342 -2.1335785288270377 -8.529363817097416 6.0690656063618285 -14.519224652087473 12.66286282306163 -19.33091451292246 1.1138170974155068 -0.8167992047713717 2.168230616302187 -1.5840954274353878 3.1384890656063615 -2.3414910536779328 3.658270377733598 -2.8414711729622266 7.51455268389662 -3.326600397614314 11.598548707753478 -3.841431411530815 2.5726699801192843 -0.2405844930417495 5.115143141153082 -0.738089463220676 7.588807157057654 -1.485089463220676 3.08255069582505 -1.1197574552683895 6.087381709741551 -2.4424771371769385 8.99469184890656 -3.960238568588469 3.5889662027833 -1.77220675944334 7.296739562624254 -3.603817097415507 10.959960238568588 -4.519622266401591 0.7870974155069583 -0.19801192842942347 1.5989463220675944 -0.346520874751491 2.4206958250497017 -0.4702783300198807v-1.485089463220676c-0.9361013916500994 0.12969781312127238 -1.8647773359840953 0.30840357852882705 -2.7820675944333995 0.5346322067594433 -3.816679920477137 0.9554075546719681 -7.5987077534791245 2.8216699801192844 -11.256978131212723 4.628528827037773 -2.8464214711729623 1.4855844930417494 -5.788383697813121 2.780582504970179 -8.806580516898608 3.876083499005964 -2.3820834990059643 0.7187833001988071 -4.829510934393638 1.197972166998012 -7.306640159045726 1.4306361829025844 -4.1037972166998005 0.5197813121272365 -8.341252485089464 1.05441351888668 -12.321292246520875 4.148349900596422 -0.9504572564612326 0.7375944333996024 -1.9801192842942346 1.485089463220676 -3.1038369781312123 2.3117892644135187 -6.930417495029821 5.074055666003976 -15.603339960238568 11.38568588469185 -13.227196819085487 20.890258449304177 1.0890656063618291 4.366163021868787 6.390834990059642 13.687574552683897 10.613439363817099 16.504294234592447 0.08910536779324055 0.059403578528827036 0.23266401590457256 0.15345924453280319 0.9009542743538768 0.15345924453280319 1.3118290258449303 0 4.663180914512922 -0.3762226640159046 13.603419483101392 -2.1632803180914513 10.85600397614314 -2.173180914512922 20.004155069582502 -6.143320079522863 29.70178926441352 -10.35107355864811l3.9948906560636184 -1.7227037773359841 -0.014850894632206759 -1.6434990059642145Z" stroke-width="1"></path><path fill="#2e3120" d="M247.60698608349898 207.41947514910538c-1.7969582504970179 0.6880914512922465 -3.5741153081510935 1.400934393638171 -5.336421471172962 2.103876739562624 -7.361093439363817 2.970178926441352 -14.979602385685885 6.014612326043737 -23.05848906560636 6.747256461232604 -5.519582504970179 0.49502982107355864 -8.841232604373758 -0.1485089463220676 -9.11844930417495 -1.782107355864811 -0.5890854870775347 -3.4652087475149105 9.865944333996024 -11.2817296222664 16.034015904572566 -12.826222664015905 5.900755467196819 -1.485089463220676 12.162882703777337 -3.158290258449304 17.984433399602384 -5.48493041749503 0.8762027833001989 -0.35147117296222663 2.079125248508946 -0.7870974155069583 3.4949105367793236 -1.2672763419483102v-1.5494433399602385c-1.831610337972167 0.6088866799204771 -3.2671968190854868 1.1237176938369782 -4.044393638170974 1.43558648111332 -5.74234592445328 2.2969383697813117 -11.945069582504969 3.960238568588469 -17.796322067594435 5.4453280318091455 -5.851252485089463 1.485089463220676 -17.964632206759443 9.628330019880716 -17.132982107355865 14.51427435387674 0.4504771371769384 2.668210735586481 4.083996023856859 3.20779324055666 7.153180914512922 3.20779324055666 1.4454870775347912 0 2.762266401590457 -0.11880715705765407 3.559264413518887 -0.19306163021868789 8.296699801192844 -0.7524453280318092 16.014214711729622 -3.851332007952286 23.479264413518887 -6.846262425447316 1.579145129224652 -0.6336381709741551 3.173141153081511 -1.2722266401590456 4.781988071570576 -1.8959642147117297v-1.6088469184890655Z" stroke-width="1"></path><path fill="#2e3120" d="M230.86012723658052 247.62084691848906h-0.08415506958250497c-0.784127236580517 -0.1856361829025845 -1.6014214711729622 -0.177220675944334 -2.381093439363817 0.024751491053677934l2.4652485089463223 -0.024751491053677934Z" stroke-width="1"></path><path fill="#2e3120" d="M247.60698608349898 243.33388866799203c-1.6350834990059642 0.9662982107355864 -2.9186958250497015 2.430101391650099 -3.663220675944334 4.178051689860835 -0.013860834990059643 0.03514711729622266 -0.025246520874751488 0.07177932405566599 -0.034652087475149106 0.1089065606361829h1.6137972166998011c0.4989900596421471 -0.9722385685884691 1.2113379721669981 -1.8182445328031809 2.084075546719682 -2.475149105367793v-1.8118091451292246Z" stroke-width="1"></path><path fill="#2e3120" d="M185.8272644135189 228.25033001988072c-3.8661829025844927 -2.8959244532803177 -6.262127236580517 -5.7175944333996025 -8.271948310139166 -9.742186878727633 -1.7524055666003977 -3.5048111332007954 -2.683061630218688 -7.242286282306163 -3.584015904572565 -10.85600397614314 -1.1484691848906559 -4.6235785288270375 -2.3414910536779328 -9.405566600397615 -5.257216699801193 -13.781630218687873 -1.2177733598409541 -1.8266600397614314 -3.1285884691848906 -2.8810735586481115 -5.682942345924453 -3.1384890656063615 -4.628528827037773 -0.455427435387674 -9.761988071570576 1.8662624254473161 -10.618389662027832 2.7226640159045727 -1.593996023856859 1.593996023856859 -3.079085487077535 2.8959244532803177 -4.390914512922465 4.044393638170974 -3.8810337972166997 3.4058051689860833 -6.682902584493042 5.86610337972167 -8.232345924453279 12.063876739562625 -1.2177733598409541 4.861192842942346 4.712683896620278 8.341252485089464 10.989662027833 12.02427435387674 5.376023856858847 3.158290258449304 10.93520874751491 6.435387673956262 11.737157057654075 10.435228628230615 0.4405765407554672 2.059324055666004 -0.05445328031809145 6.687852882703777 -0.5494831013916501 12.02427435387674 -0.1138568588469185 1.1534194831013918 -0.23266401590457256 2.3513916500994037 -0.346520874751491 3.5741153081510935h1.485089463220676c0.1089065606361829 -1.173220675944334 0.22276341948310138 -2.32168986083499 0.33166998011928434 -3.4305566600397612 0.5593836978131213 -5.6878926441351885 0.9900596421471173 -10.182763419483102 0.5494831013916501 -12.459900596421472 -0.9356063618290258 -4.668131212723658 -6.78685884691849 -8.098687872763419 -12.445049701789264 -11.425288270377733 -5.7868986083499 -3.3909542743538763 -11.247077534791252 -6.598747514910537 -10.301570576540755 -10.395626242544731 1.43558648111332 -5.747296222664016 3.960238568588469 -7.960079522862822 7.77196819085487 -11.306481113320078 1.3266799204771373 -1.1633200795228629 2.8315705765407553 -2.475149105367793 4.455268389662027 -4.113697813121273 0.5544333996023857 -0.5544333996023857 4.579025844930418 -2.3414910536779328 8.35610337972167 -2.3414910536779328 0.3613717693836978 0 0.71779324055666 0 1.0692644135188867 0.04950298210735587 2.084075546719682 0.20791252485089462 3.63351888667992 1.0445129224652088 4.593876739562623 2.475149105367793 2.772166998011928 4.158250497017892 3.876083499005964 8.60361829025845 5.049304174950298 13.311351888667993 0.9207554671968191 3.6929224652087473 1.8662624254473161 7.509602385685884 3.6929224652087473 11.162922465208748 2.123677932405567 4.247355864811134 4.648330019880716 7.222485089463221 8.707574552683896 10.266918489065606 4.282007952286283 3.20779324055666 3.5246123260437376 11.355984095427436 2.346441351888668 18.182445328031807h1.485089463220676c1.2326242544731612 -7.13337972166998 1.9355666003976144 -15.687495029821074 -2.9404771371769387 -19.34576540755467Z" stroke-width="1"></path><path fill="#2e3120" d="M145.73479920477138 163.37667196819083c-6.4007355864811135 -4.267157057654075 -16.16272365805169 1.485089463220676 -25.602942345924454 7.009622266401591 -5.31662027833002 3.123638170974155 -10.34117296222664 6.0690656063618285 -14.09844930417495 6.75220675944334 -9.96 1.8118091451292246 -19.004194831013915 1.3068787276341949 -29.50872763419483 0 -2.1781312127236583 -0.2722664015904573 -4.663180914512922 -1.22272365805169 -7.286838966202784 -2.2276341948310137 -4.628528827037773 -1.77220675944334 -9.405566600397615 -3.598866799204771 -13.608369781312126 -2.1979324055666005 -4.712683896620278 1.5692445328031808 -6.004711729622267 10.890656063618291 -7.039324055666004 18.375506958250494 -0.49502982107355864 3.4058051689860833 -0.9207554671968191 6.628449304174951 -1.579145129224652 7.979880715705765 -0.27721669980119285 0.31681908548707755 -1.8662624254473161 1.1583697813121272 -3.3959045725646124 1.9801192842942346 -7.242286282306163 3.856282306163022 -22.31099403578529 11.880715705765407 -27.602862823061628 26.13262425447316 -1.7969582504970179 4.836441351888667 -3.400854870775348 10.84610337972167 0.1732604373757455 14.415268389662028 4.455268389662027 4.455268389662027 13.6182703777336 0.09900596421471174 19.093300198807157 -2.499900596421471 0.8910536779324055 -0.4257256461232604 1.663300198807157 -0.7920477137176939 2.2919880715705765 -1.0593638170974156 11.662902584493041 -4.999801192842942 27.9048310139165 -9.79168986083499 39.023200795228625 -4.232504970178927 5.57403578528827 2.787017892644135 11.197574552683896 8.286799204771372 15.385526838966202 13.826182902584494h1.8761630218687873c-4.371113320079523 -6.029463220675944 -10.440178926441352 -12.073777335984095 -16.59834990059642 -15.15286282306163 -3.7523260437375745 -1.8761630218687873 -8.02938369781312 -2.6385089463220677 -12.504453280318092 -2.6385089463220677 -9.405566600397615 0 -19.672485089463223 3.361252485089463 -27.766222664015906 6.831411530815109 -0.6534393638170974 0.27721669980119285 -1.43558648111332 0.6534393638170974 -2.346441351888668 1.0841153081510935 -5.123558648111332 2.430596421471173 -13.697475149105369 6.499741550695825 -17.405248508946322 2.7919681908548704 -2.970178926441352 -2.970178926441352 -1.485089463220676 -8.415506958250496 0.16831013916500995 -12.846023856858846 5.098807157057655 -13.74202783300199 19.816043737574553 -21.57834990059642 26.909821073558646 -25.350477137176938 2.811769383697813 -1.485089463220676 3.7176739562624252 -1.9801192842942346 4.01469184890656 -2.5939562624254475 0.7722465208747515 -1.5494433399602385 1.2177733598409541 -4.757236580516898 1.7326043737574552 -8.469960238568587 0.9306560636182902 -6.70765407554672 2.202882703777336 -15.895407554671968 6.039363817097415 -17.172584493041747 3.6929224652087473 -1.2326242544731612 8.222445328031808 0.49502982107355864 12.603459244532804 2.1781312127236583 2.717713717693837 1.039562624254473 5.277017892644135 2.0197216699801195 7.633359840954274 2.3167395626242544 10.648091451292247 1.3266799204771373 19.801192842942346 1.8365606361829026 29.964155069582507 0 4.01469184890656 -0.7276938369781312 9.148151093439363 -3.742425447316103 14.583578528827038 -6.930417495029821 8.623419483101392 -5.0641550695825055 18.400258449304175 -10.806500994035785 24.0237972166998 -7.059125248508946 4.638429423459244 3.0939363817097414 1.197972166998012 9.732286282306163 -1.079165009940358 14.123200795228628 -0.23761431411530815 0.455427435387674 -0.46037773359840956 0.88610337972167 -0.658389662027833 1.2821272365805167 -2.9404771371769387 5.880954274353877 -11.60844930417495 16.652803180914514 -17.974532803180914 19.479423459244533l-0.88610337972167 0.39107355864811133c-6.1284691848906565 2.70286282306163 -16.380536779324057 7.227435387673956 -17.390397614314118 14.306361829025844 -1.3464811133200796 9.405566600397615 7.207634194831014 16.113220675944333 16.2617296222664 23.197097415506956 4.187952286282306 3.272147117296223 8.415506958250496 6.593797216699802 11.662902584493041 10.232266401590458h1.9801192842942346c-3.4305566600397612 -4.1334990059642145 -8.138290258449304 -7.8165208747514905 -12.722266401590456 -11.38568588469185 -8.707574552683896 -6.806660039761431 -16.930019880715708 -13.237097415506957 -15.707296222664016 -21.811013916500993 0.8960039761431412 -6.267077534791253 11.0589662027833 -10.752047713717694 16.51914512922465 -13.157892644135188l0.8910536779324055 -0.39602385685884695c6.757157057654076 -3.004831013916501 15.58848906560636 -13.954890656063618 18.69727634194831 -20.172465208747514l0.6484890656063619 -1.2623260437375745c2.36624254473161 -4.593876739562623 6.326481113320079 -12.237137176938369 0.5841351888667992 -16.068667992047715Z" stroke-width="1"></path><path fill="#2e3120" d="M112.85491848906561 242.8537097415507c-2.074174950298211 -2.9058250497017895 -3.915685884691849 -6.12351888667992 -5.69779324055666 -9.237256461232604 -1.1088667992047714 -1.9355666003976144 -2.2573359840954272 -3.960238568588469 -3.4652087475149105 -5.841351888667992 -2.128628230616302 -3.4058051689860833 -3.079085487077535 -7.326441351888668 -3.9948906560636184 -11.123320079522863 -1.0197614314115309 -4.187952286282306 -2.069224652087475 -8.519463220675945 -4.702783300198807 -12.207435387673955 -3.648369781312127 -5.11365805168986 -8.504612326043738 -7.42544731610338 -13.197495029821074 -9.70258449304175 -2.8464214711729623 -1.3712326043737575 -5.796799204771372 -2.7919681908548704 -8.519463220675945 -4.831491053677932 -0.8811530815109344 -0.6633399602385687 -1.8514115308151093 -1.950417495029821 -2.8761232604373754 -3.3117495029821074 -2.574155069582505 -3.4256063618290256 -5.781948310139165 -7.687813121272366 -10.291669980119284 -5.4453280318091455 -2.3365407554671966 1.1682703777335983 -3.75727634194831 2.6038568588469184 -4.341411530815109 4.390914512922465 -0.9900596421471173 2.970178926441352 0.6880914512922465 6.197773359840954 2.1484294234592443 9.034294234592446 1.1385685884691847 2.202882703777336 2.212783300198807 4.291908548707753 1.6137972166998011 5.4948310139165 -1.05441351888668 2.10882703777336 -4.22755467196819 3.1038369781312123 -7.029423459244533 3.960238568588469 -1.2974731610337973 0.3638469184890656 -2.565244532803181 0.8271948310139166 -3.791878926441352 1.386083499005964 -2.5048508946322063 1.2524254473161032 -24.419821073558648 12.519304174950298 -22.182286282306166 22.167435387673958 0.07202683896620278 0.42077534791252486 0.25296023856858846 0.8153141153081511 0.5248306163021869 1.1445089463220675 0.2718208747514911 0.328699801192843 0.6250741550695824 0.5811650099403578 1.0246127236580516 0.7316540755467197 3.029582504970179 1.1187673956262425 9.341212723658051 -3.25234592445328 16.09341948310139 -8.222445328031808 1.1920318091451292 -0.9321411530815109 2.4330220675944334 -1.7994333996023855 3.7176739562624252 -2.5989065606361827 9.237206958250496 -4.613677932405567 22.721819284294234 -7.370994035785288 30.498737773359842 -2.5098011928429425 14.509324055666003 9.068946322067594 17.949781312127236 15.494433399602386 23.157495029821074 25.216819085487074 1.039562624254473 1.9405168986083499 2.1484294234592443 4.009741550695825 3.4206560636182903 6.242326043737574h1.7128031809145128c-1.4454870775347912 -2.5048508946322063 -2.678111332007952 -4.801789264413518 -3.8265805168986087 -6.930417495029821 -5.128508946322067 -9.57882703777336 -8.831332007952286 -16.49934393638171 -23.67727634194831 -25.781153081510933 -3.272147117296223 -2.0395228628230617 -7.197733598409542 -2.8266202783300196 -11.247077534791252 -2.8266202783300196 -7.707614314115308 0 -15.840954274353876 2.8464214711729623 -20.702097614314113 5.2720675944334 -1.3734602385685886 0.8291749502982108 -2.6959324055666003 1.7400298210735587 -3.960238568588469 2.727614314115308 -4.252306163021869 3.1335387673956263 -12.16783300198807 8.960039761431412 -14.697435387673957 8.024433399602385 -0.1678151093439364 -0.06682902584493042 -0.3141954274353877 -0.1782107355864811 -0.42329999999999995 -0.3222644135188867 -0.10905506958250497 -0.14405367793240556 -0.17667614314115307 -0.3148389662027833 -0.1954872763419483 -0.49453479125248506 -1.6088469184890655 -6.930417495029821 13.296500994035785 -16.449840954274354 21.40013916500994 -20.5041351888668 1.15832027833002 -0.5187912524850895 2.352827236580517 -0.9524373757455268 3.574065805168986 -1.2969781312127238 3.079085487077535 -0.9653081510934394 6.573996023856858 -2.059324055666004 7.920477137176938 -4.73248508946322 0.9405566600397613 -1.8761630218687873 -0.30196819085487075 -4.286958250497018 -1.6187475149105368 -6.841312127236581s-2.8365208747514914 -5.4948310139165 -2.0543737574552687 -7.890775347912524c0.4504771371769384 -1.386083499005964 1.628648111332008 -2.5395029821073556 3.5889662027833 -3.519662027833002 3.158290258449304 -1.5840954274353878 5.489880715705765 1.0742147117296221 8.44520874751491 4.994850894632207 1.0890656063618291 1.450437375745527 2.118727634194831 2.8216699801192844 3.1681908548707756 3.6087673956262427 2.8365208747514914 2.128628230616302 5.851252485089463 3.579065606361829 8.766978131212724 4.98 4.73248508946322 2.2771371769383695 9.202604373757454 4.425566600397614 12.633161033797217 9.227355864811134 2.475149105367793 3.4652087475149105 3.4355069582504973 7.460099403578528 4.455268389662027 11.69755467196819 0.9455069582504969 3.9107355864811133 1.925666003976143 7.950178926441351 4.18300198807157 11.558946322067595 1.173220675944334 1.8761630218687873 2.3117892644135187 3.8661829025844927 3.410755467196819 5.791848906560635 1.8019085487077535 3.143439363817097 3.663220675944334 6.395785288270377 5.781948310139165 9.361013916500994 1.038572564612326 1.3781630218687873 2.1820914512922465 2.674151093439364 3.4206560636182903 3.876083499005964l0.029701789264413518 0.029701789264413518h2.069224652087475c-0.34157057654075546 -0.3613717693836978 -0.693041749502982 -0.71779324055666 -1.0346123260437374 -1.0692644135188867 -1.1677753479125248 -1.144013916500994 -2.2484254473161034 -2.37317296222664 -3.232544731610338 -3.6780715705765408Z" stroke-width="1"></path><path fill="#2e3120" d="M40.29844711729622 246.02685089463222c-2.0584825049701787 0.23018886679920478 -4.070828230616302 0.7672962226640159 -5.970059642147118 1.593996023856859h5.158210735586481c0.31186878727634193 -0.04950298210735587 0.6237375745526839 -0.09405566600397615 0.9306560636182902 -0.1138568588469185 2.8921127236580517 -0.21335785288270376 5.797294234592445 -0.17524055666003974 8.682823061630218 0.1138568588469185h8.771878926441351c-5.736900596421472 -1.4553876739562623 -11.668248906560635 -1.9934850894632208 -17.573509145129222 -1.593996023856859Z" stroke-width="1"></path><path fill="#2e3120" d="M35.18473956262425 168.02005168986082c-1.5642942345924453 -0.8415506958250497 -3.03948310139165 -1.638548707753479 -4.356262425447317 -2.430596421471173 -2.7673652087475147 -1.7266640159045725 -5.413695626242545 -3.6404493041749504 -7.920477137176938 -5.727495029821074 -6.1284691848906565 -4.876043737574553 -11.925268389662028 -9.484771371769384 -22.81590712723658 -8.77192842942346v1.485089463220676C10.487701789264413 151.87217892644134 15.814222664015904 156.11458449304175 21.97734393638171 161.02528031809143c2.560244731610338 2.126648111332008 5.26102842942346 4.0780556660039755 8.083836978131211 5.841351888667992 1.351431411530815 0.8068986083499006 2.8414711729622266 1.6088469184890655 4.420616302186879 2.475149105367793 3.6929224652087473 1.9801192842942346 7.51455268389662 4.049343936381709 9.811491053677932 6.346282306163022 0.4405765407554672 0.4405765407554672 0.35147117296222663 2.2276341948310137 0.30691848906560637 3.088986083499006 0 0.3217693836978131 -0.029701789264413518 0.6138369781312127 -0.029701789264413518 0.8465009940357853 0 6.1829224652087476 -1.638548707753479 11.60844930417495 -9.633280318091451 18.009184890656066 -1.485089463220676 1.1880715705765408 -3.291948310139165 1.8712127236580516 -5.202763419483102 2.589005964214712 -2.074174950298211 0.7870974155069583 -4.222604373757455 1.5989463220675944 -5.975009940357853 3.1285884691848906 -13.12324055666004 11.469840954274355 -27.078111411530813 28.33055666003976 -20.41996031809145 44.27051689860835H4.963168986083499c-6.9056462027833 -15.29642147117296 6.866063618290258 -31.870019880715702 19.801192842942346 -43.16660039761432 1.544493041749503 -1.3563817097415507 3.4652087475149105 -2.084075546719682 5.519582504970179 -2.856322067594433 1.9355666003976144 -0.7326441351888667 3.960238568588469 -1.485089463220676 5.603737574552684 -2.8216699801192844 6.118568588469184 -4.895844930417495 10.192664015904572 -10.024353876739562 10.192664015904572 -19.16755467196819 0 -0.2128628230616302 0 -0.49502982107355864 0.029701789264413518 -0.7722465208747515 0.0742544731610338 -1.485089463220676 0.16335984095427436 -3.3067992047713717 -0.742544731610338 -4.212703777335984 -2.475149105367793 -2.4503976143141153 -6.390834990059642 -4.559224652087475 -10.182763419483102 -6.603697813121272Z" stroke-width="1"></path><path fill="#2e3120" d="M0.09209287276341949 207.73629423459244v1.6682504970178926c0.3301398429423459 0.1975168986083499 0.63585837972167 0.4336461232604374 0.9108573459244532 0.7029423459244533 0.36632206759443336 0.371272365805169 0.49502982107355864 1.207872763419483 0.28711729622266396 2.3513916500994037 -0.25023757455268386 1.3143041749502982 -0.6522562425447316 2.5949463220675946 -1.1979746421471174 3.816679920477137v3.410755467196819c1.2771794135188865 -2.381093439363817 2.336543230616302 -4.975049701789264 2.663262912524851 -6.989821073558647 0.2722664015904573 -1.6781510934393638 0.034652087475149106 -2.900874751491054 -0.7029423459244533 -3.638469184890656 -0.5686803578528826 -0.5549284294234592 -1.2327430616302186 -1.0029304174950298 -1.9603205666003978 -1.3217296222664014Z" stroke-width="1"></path><path fill="#2e3120" d="M16.482512922465208 174.39603578528826c-0.9900596421471173 -1.673200795228628 -2.0098210735586477 -3.4058051689860833 -4.009741550695825 -4.603777335984096 -2.930576540755467 -1.7573558648111332 -7.281888667992048 -2.752365805168986 -12.375723250497018 -2.861272365805169v1.485089463220676c4.484972654075547 0.1089065606361829 8.752104960238569 0.9257057654075547 11.618327624254473 2.643459244532803 1.673200795228628 0.9900596421471173 2.5543538767395626 2.475149105367793 3.4899602385685884 4.088946322067594 0.5208208747514911 0.9321411530815109 1.108124254473161 1.8251749502982106 1.7573558648111332 2.673161033797217 3.722624254473161 4.6532803180914515 5.049304174950298 8.415506958250496 3.960238568588469 11.187673956262426 -2.0890258449304175 5.1978131212723655 -12.256938369781313 6.722504970178926 -20.791230208747514 7.856123260437375v1.485089463220676C9.106568588469186 197.1575069582505 19.893268389662026 195.57341153081512 22.313964214711728 189.5488986083499c1.3464811133200796 -3.351351888667992 0 -7.494751491053678 -4.153300198807157 -12.672763419483102 -0.6179457256461233 -0.7856123260437375 -1.178765009940358 -1.6142922465208749 -1.6781510934393638 -2.480099403578529Z" stroke-width="1"></path><path fill="#2e3120" d="M128.30479920477137 71.16251689860835c-1.029662027833002 -0.38117296222664016 -1.9801192842942346 -0.8118489065606361 -2.9107753479125247 -1.2276739562624255 -2.2474353876739563 -1.0148111332007952 -4.371113320079523 -1.9801192842942346 -7.237335984095427 -2.2276341948310137 -7.351192842942345 -0.6682902584493042 -16.335984095427435 0.7276938369781312 -25.825705765407555 2.202882703777336 -16.47459244532803 2.5642544731610335 -33.51351888667992 5.207713717693837 -45.81996023856859 -1.821709741550696 -8.999642147117296 -5.1433598409542745 -13.41530815109344 -14.172703777335983 -17.68741550695825 -22.90027753479125 -4.158250497017892 -8.48976143141153 -8.078886679920478 -16.50924453280318 -15.840954274353876 -21.172425447316105 -3.6087673956262427 -2.168230616302187 -8.148171053677931 -2.970178926441352 -12.870758021868786 -2.8414711729622266v1.485089463220676c4.083998499005964 -0.10395626242544731 8.524396192842941 0.49502982107355864 12.133163588469186 2.633558648111332 7.395745526838966 4.455268389662027 11.22727634194831 12.266838966202783 15.281570576540755 20.553638170974157 4.371113320079523 8.910734791252484 8.910536779324055 18.162842147117296 18.286401590457256 23.533915705765406 12.761868787276342 7.291789264413519 30.835407554671967 4.455268389662027 46.78526838966203 1.9801192842942346 9.405566600397615 -1.485089463220676 18.31610337972167 -2.8464214711729623 25.464333996023857 -2.192982107355865 2.6187077534791254 0.23761431411530815 4.633479125248509 1.1435188866799204 6.762107355864811 2.098926441351889 0.9455069582504969 0.4257256461232604 1.925666003976143 0.8663021868787276 2.9949304174950298 1.2672763419483102 10.266918489065606 3.851332007952286 15.994413518886681 7.55910536779324 19.15765407554672 12.405447316103379 3.5048111332007954 5.371073558648111 4.118648111332008 12.509403578528827 1.9801192842942346 23.152544731610337 -1.1187673956262425 5.5789860834990055 -3.326600397614314 9.979801192842942 -5.663141153081511 14.63803180914513 -1.6024115308151095 3.0493836978131212 -3.0256222664015904 6.189852882703777 -4.262206759443339 9.405566600397615 -0.7687813121272365 2.2528807157057655 -1.4182604373757457 4.5443737574552685 -1.9454671968190855 6.866063618290258 -1.1781709741550694 4.781988071570576 -2.395944333996024 9.722385685884692 -5.593836978131213 13.365805168986084 -9.321411530815109 10.657992047713718 -23.22679920477137 16.727057654075548 -40.21127236580517 17.558707753479123 -14.464771371769382 0.7029423459244533 -30.691848906560637 -2.5494035785288274 -44.51308151093439 -8.910536779324055 -5.093856858846918 -2.3266401590457257 -9.945149105367793 -5.470079522862823 -14.623180914512922 -8.529363817097416 -6.311630218687872 -4.1087475149105375 -12.801471172962227 -8.35610337972167 -20.172465208747514 -10.80155069582505 -3.4652087475149105 -1.1583697813121272 -7.4848310934393645 -1.5246918489065606 -11.88069837972167 -1.1088667992047714v1.485089463220676c4.257258936381709 -0.41582504970178924 8.113521441351889 -0.0742544731610338 11.425270944333997 1.029662027833002 7.172982107355865 2.390994035785288 13.603419483101392 6.58389662027833 19.801192842942346 10.638190854870775 4.7374353876739566 3.079085487077535 9.61347912524851 6.272027833001988 14.811292246520875 8.667972166998013 12.935129224652087 5.916596421471173 26.97268986083499 9.037264413518887 41.19638170974155 9.158051689860836 1.3529165009940358 0 2.6914771371769386 -0.033166998011928434 4.01469184890656 -0.09900596421471174 17.39534791252485 -0.8465009940357853 31.681908548707753 -7.093777335984095 41.25578528827038 -18.063638170974155 3.4355069582504973 -3.920636182902584 4.697833001988071 -9.044194831013916 5.915606361829026 -13.994493041749502 0.5143359840954274 -2.269711729622266 1.1489642147117296 -4.510711729622266 1.9009145129224652 -6.712604373757455 1.2162882703777336 -3.1681908548707756 2.6162326043737574 -6.26262226640159 4.192902584493042 -9.266958250497018 2.2771371769383695 -4.5443737574552685 4.638429423459244 -9.237256461232604 5.791848906560635 -15.014254473161033 2.212783300198807 -11.054015904572564 1.529642147117296 -18.533916500994035 -2.202882703777336 -24.256461232604373 -3.346401590457256 -5.133459244532803 -9.28675944333996 -9.014493041749503 -19.890298210735587 -12.984632206759443Z" stroke-width="1"></path><path fill="#2e3120" d="M105.88489860834989 81.29082703777335c-6.4007355864811135 -1.5989463220675944 -12.821272365805168 -0.5841351888667992 -19.03389662027833 0.39602385685884695 -1.856361829025845 0.2920675944333996 -3.7721272365805167 0.5940357852882704 -5.643339960238569 0.8217495029821072 -1.5692445328031808 0.1881113320079523 -3.1483896620278333 0.38612326043737577 -4.73248508946322 0.5841351888667992 -12.747017892644134 1.5989463220675944 -25.924711729622263 3.25234592445328 -38.414314115308144 0.41582504970178924 -10.059005964214712 -2.2721868787276343 -22.009025844930417 -10.81145129224652 -24.602982107355867 -21.14272365805169 -0.6831411530815109 -2.7325646123260436 -0.5940357852882704 -5.940357852882704 -0.49502982107355864 -9.405566600397615 0.20296222664015903 -7.287036978131212 0.4356262425447316 -15.549084691848906 -8.098668071570577 -18.751927634194832 -1.5321766998011928 -0.5435427435387674 -3.1463550894632206 -0.8198683896620278 -4.772089950298211 -0.8167992047713717v1.485089463220676c1.4510586381709742 -0.002128628230616302 2.8914865109343935 0.24746540755467197 4.257258936381709 0.7375944333996024C11.888636182902584 38.44579801192843 11.69062425447316 45.480171769383695 11.482711729622267 52.94046918489066c-0.09405566600397615 3.371153081510934 -0.1881113320079523 6.851212723658051 0.5445328031809146 9.786739562624254 1.6236978131212723 6.489840954274354 6.321530815109344 11.38568588469185 9.979801192842942 14.3558648111332 4.658230616302187 3.7919284294234594 10.395626242544731 6.658151093439363 15.727097415506957 7.870974155069582 12.742067594433399 2.8959244532803177 26.053419483101393 1.2276739562624255 38.924194831013914 -0.38612326043737577 1.5840954274353878 -0.20296222664015903 3.1632405566600394 -0.39602385685884695 4.722584493041749 -0.5841351888667992 1.9009145129224652 -0.227713717693837 3.831530815109344 -0.5346322067594433 5.702743538767395 -0.8316500994035785 6.064115308151093 -0.9554075546719681 12.336143141153082 -1.9454671968190855 18.43986083499006 -0.42077534791252486 6.301729622266402 1.5741948310139167 12.806421471172962 5.673041749502983 17.400298210735585 10.964910536779323 5.044353876739562 5.801749502982108 7.336341948310139 12.375745526838966 6.435387673956262 18.538866799204772 -1.3811332007952286 9.687733598409542 -6.846262425447316 18.15769383697813 -16.246878727634193 25.167316103379722 -16.831013916500993 12.539105367793239 -41.582504970178924 16.73200795228628 -57.37395626242545 14.395467196819084 -7.13337972166998 -1.0445129224652088 -13.791530815109343 -4.410715705765408 -20.236819085487078 -7.63831013916501 -2.4206958250497017 -1.22272365805169 -4.950298210735586 -2.475149105367793 -7.42544731610338 -3.6087673956262427 -3.885984095427435 -1.7474552683896618 -7.351192842942345 -4.950298210735586 -11.024314115308151 -8.326401590457257 -5.079005964214711 -4.7374353876739566 -10.346123260437375 -9.568926441351888 -16.959704343936384 -10.440178926441352v1.5147912524850895C6.200743538767395 124.20991252485089 11.195594433399602 128.81368986083498 16.061737574552684 133.268958250497c3.5939165009940357 3.316699801192843 7.316540755467196 6.747256461232604 11.420337972166998 8.593717693836977 2.475149105367793 1.1039165009940357 4.950298210735586 2.3612922465208745 7.351192842942345 3.579065606361829 6.549244532803181 3.3067992047713717 13.316302186878726 6.727455268389662 20.707097415506958 7.821471172962227 16.09341948310139 2.381093439363817 41.34489065606362 -1.8910139165009938 58.48282306163022 -14.672683896620278 9.588727634194832 -7.153180914512922 15.405328031809145 -16.197375745526838 16.831013916500993 -26.1524254473161 0.9356063618290258 -6.58389662027833 -1.485089463220676 -13.588568588469185 -6.806660039761431 -19.72198807157058 -4.786938369781312 -5.48493041749503 -11.58369781312127 -9.761988071570576 -18.162644135188867 -11.425288270377733Z" stroke-width="1"></path><path fill="#2e3120" d="M69.50020675944333 98.34955467196819c-3.143439363817097 -1.257375745526839 -6.435387673956262 -2.475149105367793 -9.608528827037773 -3.648369781312127 -6.336381709741551 -2.3513916500994037 -12.920278330019881 -4.781988071570576 -18.712127236580514 -7.668011928429423 -1.8415109343936382 -0.9207554671968191 -4.257256461232604 -0.8266998011928429 -6.593797216699802 -0.7326441351888667 -1.3194029821073556 0.10148111332007952 -2.645538369781312 0.07672962226640159 -3.960238568588469 -0.0742544731610338 -3.4058051689860833 -0.5692842942345924 -7.578906560636183 -2.8860238568588468 -10.836202783300198 -4.836441351888667 -5.74234592445328 -3.4652087475149105 -12.712365805168986 -11.771809145129225 -13.949940357852883 -19.212107355864813 -0.2722664015904573 -1.6187475149105368 -0.41582504970178924 -3.346401590457256 -0.5742345924453279 -5.173061630218688 -0.4504622862823061 -5.4156262425447315 -0.9652883499005963 -11.470038966202784 -5.17304430417495 -14.910496222664015v2.069224652087475c2.8662251391650098 3.1632405566600394 3.2919507852882703 8.128587673956263 3.702825536779324 12.974929622266401 0.15840954274353877 1.856361829025845 0.31186878727634193 3.6087673956262427 0.5890854870775347 5.286918489065606 1.3118092246520876 7.861073558648112 8.623399681908548 16.628051689860836 14.652862902584493 20.241769383697815 3.366202783300199 2.0197216699801195 7.697713717693837 4.420616302186879 11.355984095427436 5.029502982107356 1.4176664015904572 0.16930019880715708 2.8484015904572564 0.20048707753479125 4.2721073558648115 0.09405566600397615 2.1484294234592443 -0.08415506958250497 4.371113320079523 -0.1732604373757455 5.871053677932405 0.5742345924453279 5.841351888667992 2.920675944333996 12.45 5.366123260437376 18.840834990059644 7.732365805168985 3.1681908548707756 1.173220675944334 6.435387673956262 2.386043737574553 9.573876739562625 3.638469184890656 6.0987673956262425 2.440497017892644 16.573598409542743 11.073817097415507 14.85089463220676 18.875487077534792 -1.1880715705765408 5.356222664015904 -5.7720477137176935 9.083797216699802 -9.405566600397615 11.26192842942346 -4.442892644135188 2.5949463220675946 -9.326361829025844 4.348836978131213 -14.405367793240558 5.173061630218688 -13.311351888667993 2.0494234592445326 -34.30556660039761 -9.172902584493043 -49.63168986083499 -17.360695825049703 -3.1384890656063615 -1.6781510934393638 -6.0987475944334 -3.257296222664016 -8.60854878727634 -4.5146719681908545 -0.5593836978131213 -0.2821669980119284 -1.1138170974155068 -0.5544333996023857 -1.6583523757455267 -0.8217495029821072v1.6583499005964215l0.9900621172962225 0.49502982107355864c2.475149105367793 1.2474751491053677 5.445308230616302 2.8266202783300196 8.568946401590457 4.494870775347913 14.227157057654075 7.603658051689861 33.270954274353876 17.781471172962227 46.978330019880715 17.781471172962227 1.197972166998012 0.0044552683896620275 2.3944592445328032 -0.08316500994035786 3.579065606361829 -0.2623658051689861 8.791729622266402 -1.351431411530815 22.707017892644135 -7.148230616302187 25.023757455268388 -17.583459244532804 1.9454671968190855 -8.73727634194831 -9.034294234592446 -17.905228628230617 -15.732047713717694 -20.58333996023857Z" stroke-width="1"></path><path fill="#2e3120" d="m36.753984095427434 94.16160238568588 -0.9900596421471173 -0.2623658051689861 -3.079085487077535 -0.8217495029821072c-8.762027833001987 -2.3266401590457257 -20.761550695825047 -5.509681908548708 -26.731610337972167 -10.613439363817099 -2.1979126043737574 -1.9207157057654074 -4.306739642147118 -5.232465208747515 -5.861135755467196 -8.65807157057654v3.3216500994035782c1.4207380616302185 2.5692047713717696 3.1186903479125245 4.900795228628231 4.950280884691849 6.435387673956262 6.212624254473162 5.321570576540755 18.400258449304175 8.559065606361829 27.30089463220676 10.920357852882702 1.0841153081510935 0.28711729622266396 2.113777335984095 0.5593836978131213 3.0691848906560635 0.8217495029821072l0.9900596421471173 0.2623658051689861c5.237415506958251 1.3959840954274352 9.761988071570576 2.6038568588469184 8.598667992047714 8.999642147117296 -0.49502982107355864 2.589005964214712 -2.0642743538767396 4.856242544731611 -4.608727634194831 6.559145129224652 -3.8364811133200796 2.5692047713717696 -9.687733598409542 3.6830218687872764 -14.23210735586481 2.7078131212723657 -7.192783300198807 -1.5098409542743538 -14.18755467196819 -7.242286282306163 -20.924910536779326 -12.791570576540755 -1.7325845725646123 -1.4207355864811133 -3.4651889463220673 -2.8266202783300196 -5.143342514910537 -4.153300198807157v1.8910139165009938c1.3860859741550695 1.1039165009940357 2.7870203677932404 2.2523856858846916 4.202800705765408 3.410755467196819 6.885849960238568 5.658190854870775 14.009329085487076 11.509443339960239 21.5238817693837 13.118290258449305 1.2662367793240557 0.26682107355864815 2.557324055666004 0.39800397614314115 3.851332007952286 0.39107355864811133 4.074392445328032 0.015345924453280318 8.068144532803181 -1.1355984095427436 11.509443339960239 -3.316699801192843 2.8860238568588468 -1.9306163021868787 4.697833001988071 -4.534473161033797 5.242365805168986 -7.529403578528827 1.4207355864811133 -7.722465208747515 -4.470119284294234 -9.311510934393638 -9.667932405566601 -10.692644135188868Z" stroke-width="1"></path></svg>